<svg width="220" height="156" viewBox="0 0 220 156" fill="none" xmlns="http://www.w3.org/2000/svg">
<rect width="220" height="156" fill="#1C1D19"/>
<circle cx="64.5081" cy="85.4061" r="26.0473" fill="#A7B1C2"/>
<circle cx="41.5865" cy="52.5865" r="14.5865" fill="#A7B1C2"/>
<circle cx="86.9087" cy="52.5865" r="14.5865" fill="#A7B1C2"/>
<path d="M91.7944 103.226C90.9678 102.306 90.5544 101.033 90.5544 99.406C90.5544 97.7793 90.9678 96.506 91.7944 95.586C92.6344 94.666 93.7611 94.206 95.1744 94.206C96.5878 94.206 97.7078 94.666 98.5344 95.586C99.3611 96.506 99.7744 97.7793 99.7744 99.406C99.7744 101.033 99.3611 102.306 98.5344 103.226C97.7078 104.146 96.5878 104.606 95.1744 104.606C93.7611 104.606 92.6344 104.146 91.7944 103.226ZM95.1744 97.546C94.4278 97.546 94.0544 98.1593 94.0544 99.386C94.0544 100.613 94.4278 101.226 95.1744 101.226C95.9344 101.226 96.3144 100.613 96.3144 99.386C96.3144 98.1593 95.9344 97.546 95.1744 97.546ZM104.468 99.446C104.468 100.753 104.962 101.406 105.948 101.406C106.588 101.406 107.122 101.279 107.548 101.026C107.748 101.026 107.908 101.373 108.028 102.066C108.162 102.746 108.228 103.213 108.228 103.466C108.228 103.706 108.195 103.866 108.128 103.946C107.422 104.386 106.455 104.606 105.228 104.606C104.002 104.606 102.955 104.153 102.088 103.246C101.235 102.326 100.808 101.079 100.808 99.506C100.808 97.9193 101.228 96.6393 102.068 95.666C102.922 94.6927 104.048 94.206 105.448 94.206C106.862 94.206 107.842 94.546 108.388 95.226C108.508 95.3727 108.568 95.5927 108.568 95.886C108.568 96.166 108.515 96.5127 108.408 96.926C108.168 97.7793 107.855 98.2727 107.468 98.406C107.415 98.4193 107.335 98.426 107.228 98.426C107.135 98.426 107.015 98.346 106.868 98.186C106.348 97.666 105.928 97.406 105.608 97.406C105.302 97.406 105.035 97.566 104.808 97.886C104.582 98.206 104.468 98.726 104.468 99.446ZM109.665 90.566C109.665 90.3527 110.272 90.246 111.485 90.246C112.618 90.286 113.185 90.3727 113.185 90.506V98.186L115.165 94.526C115.258 94.326 115.825 94.226 116.865 94.226C117.905 94.226 118.572 94.2927 118.865 94.426L116.265 98.666L119.265 104.286C119.292 104.339 119.038 104.379 118.505 104.406C117.985 104.446 117.552 104.466 117.205 104.466C115.925 104.466 115.238 104.406 115.145 104.286L113.165 99.846V104.266C113.165 104.439 112.578 104.526 111.405 104.526C110.245 104.526 109.665 104.446 109.665 104.286V90.566ZM118.887 94.506C118.887 94.3593 119.493 94.286 120.707 94.286C121.933 94.286 122.567 94.3527 122.607 94.486L124.047 99.206L125.427 94.446C125.48 94.3393 125.893 94.286 126.667 94.286C128.44 94.286 129.287 94.3727 129.207 94.546L124.507 107.926C124.493 108.006 124.127 108.046 123.407 108.046C122.7 108.046 122.04 108.019 121.427 107.966C120.813 107.926 120.52 107.873 120.547 107.806L122.287 103.606L118.887 94.506ZM148.198 104.426C147.012 104.426 146.418 104.293 146.418 104.026L145.998 96.006L143.558 104.126C143.505 104.286 143.052 104.366 142.198 104.366C141.345 104.366 140.905 104.293 140.878 104.146L138.358 95.926L138.078 103.906C138.065 104.106 137.812 104.246 137.318 104.326C136.825 104.393 136.412 104.426 136.078 104.426C135.758 104.426 135.445 104.406 135.138 104.366C134.498 104.273 134.185 104.106 134.198 103.866L134.658 90.866C134.658 90.546 135.472 90.386 137.098 90.386C137.578 90.386 138.165 90.426 138.858 90.506C139.552 90.5727 139.938 90.7127 140.018 90.926L142.258 97.226L144.218 90.906C144.338 90.5593 145.258 90.386 146.978 90.386C147.472 90.386 148.058 90.426 148.738 90.506C149.432 90.5727 149.778 90.6993 149.778 90.886L150.358 104.006C150.358 104.153 150.098 104.259 149.578 104.326C149.058 104.393 148.598 104.426 148.198 104.426ZM153.103 103.226C152.276 102.306 151.863 101.033 151.863 99.406C151.863 97.7793 152.276 96.506 153.103 95.586C153.943 94.666 155.07 94.206 156.483 94.206C157.896 94.206 159.016 94.666 159.843 95.586C160.67 96.506 161.083 97.7793 161.083 99.406C161.083 101.033 160.67 102.306 159.843 103.226C159.016 104.146 157.896 104.606 156.483 104.606C155.07 104.606 153.943 104.146 153.103 103.226ZM156.483 97.546C155.736 97.546 155.363 98.1593 155.363 99.386C155.363 100.613 155.736 101.226 156.483 101.226C157.243 101.226 157.623 100.613 157.623 99.386C157.623 98.1593 157.243 97.546 156.483 97.546ZM162.397 94.526C162.397 94.3793 162.97 94.306 164.117 94.306C165.264 94.306 165.837 94.3793 165.837 94.526V100.366C165.837 101.033 166.05 101.366 166.477 101.366C166.797 101.366 167.157 101.226 167.557 100.946V94.526C167.557 94.3927 168.124 94.326 169.257 94.326C170.39 94.326 170.957 94.3927 170.957 94.526V101.086H171.477C171.93 101.086 172.157 101.519 172.157 102.386C172.157 102.826 172.064 103.273 171.877 103.726C171.61 104.313 171.25 104.606 170.797 104.606C169.904 104.606 169.244 104.239 168.817 103.506L168.797 103.526C167.984 104.246 167.11 104.606 166.177 104.606C164.884 104.606 163.93 104.286 163.317 103.646C162.704 102.993 162.397 101.919 162.397 100.426V94.526ZM173.796 100.806C174.876 101.459 175.729 101.786 176.356 101.786C176.756 101.786 176.956 101.646 176.956 101.366C176.956 101.166 176.609 100.906 175.916 100.586C174.249 99.906 173.416 98.7927 173.416 97.246C173.416 96.2593 173.776 95.506 174.496 94.986C175.216 94.466 176.076 94.206 177.076 94.206C178.089 94.206 178.942 94.3127 179.636 94.526C180.342 94.7393 180.696 95.0193 180.696 95.366C180.696 95.6593 180.549 96.046 180.256 96.526C179.976 97.006 179.782 97.266 179.676 97.306C179.102 96.986 178.482 96.826 177.816 96.826C177.456 96.826 177.276 96.9527 177.276 97.206C177.276 97.366 177.342 97.506 177.476 97.626C177.622 97.7327 177.882 97.8727 178.256 98.046C178.629 98.206 178.936 98.3527 179.176 98.486C179.429 98.6193 179.709 98.806 180.016 99.046C180.656 99.5527 180.976 100.213 180.976 101.026C180.976 102.093 180.622 102.959 179.916 103.626C179.209 104.279 178.142 104.606 176.716 104.606C175.769 104.606 174.909 104.446 174.136 104.126C173.362 103.806 172.976 103.366 172.976 102.806C172.976 102.433 173.062 102.039 173.236 101.626C173.422 101.213 173.609 100.939 173.796 100.806ZM189.94 103.866C189.1 104.359 188.02 104.606 186.7 104.606C185.38 104.606 184.266 104.159 183.36 103.266C182.453 102.359 182 101.113 182 99.526C182 97.926 182.433 96.6393 183.3 95.666C184.18 94.6927 185.286 94.206 186.62 94.206C187.953 94.206 188.98 94.546 189.7 95.226C190.433 95.906 190.8 96.7327 190.8 97.706C190.8 99.866 189.56 100.946 187.08 100.946H185.7C185.7 101.346 185.806 101.626 186.02 101.786C186.246 101.933 186.573 102.006 187 102.006C187.933 102.006 188.82 101.793 189.66 101.366C189.673 101.353 189.733 101.446 189.84 101.646C190.16 102.219 190.32 102.706 190.32 103.106C190.32 103.493 190.193 103.746 189.94 103.866ZM187.44 98.086C187.44 97.526 187.166 97.246 186.62 97.246C186.366 97.246 186.146 97.326 185.96 97.486C185.786 97.6327 185.7 97.8527 185.7 98.146V98.766H186.78C187.22 98.766 187.44 98.5393 187.44 98.086Z" fill="#A7B1C2"/>
<path d="M56.816 90.536L54.608 85.544L53.6 90.536L50.336 107H45.008L52.304 71.72H52.88L62.576 90.776L65.456 97.16L68.336 90.776L77.84 71.72H78.368L85.952 107H80.672L77.12 90.536L76.064 85.544L74.144 90.536L65.6 107H65.312L56.816 90.536Z" fill="#1C1D19"/>
<path d="M53.5047 81.2385L70.499 116.402L46.796 110.879L53.5047 81.2385Z" fill="#1C1D19"/>
<path d="M77.3349 82.2804L60.3406 117.444L84.0436 111.921L77.3349 82.2804Z" fill="#1C1D19"/>
<ellipse cx="58.2568" cy="98.1692" rx="2.08378" ry="4.94898" fill="#A7B1C2"/>
<ellipse cx="72.3223" cy="98.6902" rx="2.08378" ry="4.94898" transform="rotate(-180 72.3223 98.6902)" fill="#A7B1C2"/>
</svg>
