<svg width="63" height="63" viewBox="0 0 63 63" fill="none" xmlns="http://www.w3.org/2000/svg">
<rect width="63" height="63" fill="#231C4F"/>
<ellipse cx="31.5" cy="41.5" rx="17.5" ry="16.5" fill="#A7B1C2"/>
<circle cx="17.5" cy="19.5" r="9.5" fill="#A7B1C2"/>
<ellipse cx="45" cy="19.5" rx="10" ry="9.5" fill="#A7B1C2"/>
<path d="M24.5285 38L36 61L20 57.3875L24.5285 38Z" fill="#231C4F"/>
<path d="M38.7545 40L28 62L43 58.5445L38.7545 40Z" fill="#231C4F"/>
<ellipse cx="25.5" cy="50" rx="1.5" ry="3" fill="#A7B1C2"/>
<ellipse cx="37.5" cy="50" rx="1.5" ry="3" fill="#A7B1C2"/>
<path d="M26.01 45.71L24.63 42.59L24 45.71L21.96 56H18.63L23.19 33.95H23.55L29.61 45.86L31.41 49.85L33.21 45.86L39.15 33.95H39.48L44.22 56H40.92L38.7 45.71L38.04 42.59L36.84 45.71L31.5 56H31.32L26.01 45.71Z" fill="#231C4F"/>
</svg>
